<?xml version="1.0" encoding="UTF-8"?>
<svg width="640" height="480" xmlns="http://www.w3.org/2000/svg" xmlns:svg="http://www.w3.org/2000/svg" xmlns:xlink="http://www.w3.org/1999/xlink">
 <title>roku</title>
 <defs>
  <linearGradient id="linearGradient2198">
   <stop id="stop2218" offset="0" stop-color="#767676"/>
   <stop offset="0.666667" id="stop2220" stop-color="#bbbbbb"/>
   <stop offset="1" id="stop2202" stop-color="#dfdfdf"/>
  </linearGradient>
  <linearGradient xlink:href="#linearGradient2198" id="linearGradient2597" gradientTransform="translate(581.82024,-155.61373)" spreadMethod="reflect" x1="-13.328578" y1="-0.689095" x2="-13.194589" y2="-0.689095"/>
 </defs>
 <metadata id="metadata7">image/svg+xml</metadata>
 <g>
  <title>Layer 1</title>
  <g id="layer1">
   <path stroke="url(#linearGradient2597)" id="path2609" d="m10,340.000005l57.178387,0c23.331048,0.000133 41.302183,3.414686 53.914226,10.243747c12.611657,6.829261 18.917557,16.626941 18.917557,29.393067c0,6.638341 -2.750846,12.957191 -8.251808,18.956484c-5.501528,5.999417 -12.708979,10.467769 -21.622188,13.405105l51.205311,48.82873l-47.50666,9.957407l-57.465183,-60.124307l0,56.290941l-46.369641,3.833366l0,-130.784542zm81.366117,43.850016c0,-4.978636 -2.750876,-8.999951 -8.252011,-12.064044c-5.501345,-3.063858 -12.046265,-4.59586 -19.633963,-4.59592l-7.110505,0.385668l0,34.850954l8.534327,0.765504c7.396892,0.000057 13.656561,-1.915633 18.778837,-5.747173c5.122063,-3.831332 7.683315,-8.362976 7.683315,-13.594991l0,0l0,0.000003z" stroke-dashoffset="0" stroke-miterlimit="4" marker-end="none" marker-mid="none" marker-start="none" stroke-width="2" fill-rule="nonzero" fill="#3f007f"/>
  </g>
  <text fill="#000000" stroke="#000000" stroke-width="0" x="787" y="698" id="svg_1" font-size="24" font-family="serif" text-anchor="middle" xml:space="preserve"/>
 </g>
</svg>